<?xml version="1.0" standalone="no"?>
<!DOCTYPE svg PUBLIC "-//W3C//DTD SVG 20010904//EN"
 "http://www.w3.org/TR/2001/REC-SVG-20010904/DTD/svg10.dtd">
<svg version="1.0" xmlns="http://www.w3.org/2000/svg"
 width="38.000000pt" height="38.000000pt" viewBox="0 0 38.000000 38.000000"
 preserveAspectRatio="xMidYMid meet">

<g transform="translate(0.000000,38.000000) scale(0.100000,-0.100000)"
fill="#000000" stroke="none">
<path d="M150 365 c-10 -12 -10 -18 0 -30 7 -8 19 -15 26 -15 17 0 18 -12 2
-28 -9 -9 -9 -15 1 -25 11 -10 12 -9 7 1 -4 7 -2 19 4 27 13 16 5 35 -15 35
-21 0 -28 19 -15 35 7 8 10 15 7 15 -2 0 -10 -7 -17 -15z"/>
<path d="M239 358 c0 -2 -2 -18 -3 -36 -2 -24 3 -36 20 -47 33 -21 45 -19 13
3 -19 13 -25 25 -23 50 1 26 -3 42 -7 30z"/>
<path d="M108 323 c9 -3 10 -9 2 -18 -8 -9 -3 -17 17 -29 l28 -17 -23 20 c-13
12 -18 22 -12 26 13 8 3 25 -13 24 -8 0 -8 -2 1 -6z"/>
<path d="M336 322 c-2 -4 -1 -14 4 -22 7 -11 9 -9 7 8 -1 24 -3 26 -11 14z"/>
<path d="M298 298 c5 -5 16 -8 23 -6 8 3 3 7 -10 11 -17 4 -21 3 -13 -5z"/>
<path d="M320 261 c-5 -11 -19 -23 -31 -26 -11 -4 -18 -9 -16 -12 9 -8 46 16
57 37 6 11 8 20 6 20 -3 0 -10 -9 -16 -19z"/>
<path d="M34 250 c-12 -5 -25 -13 -28 -19 -5 -8 49 14 63 26 8 6 -14 2 -35 -7z"/>
<path d="M54 229 c-3 -6 -2 -15 3 -20 5 -5 9 -1 9 11 0 23 -2 24 -12 9z"/>
<path d="M87 229 c7 -7 15 -10 18 -7 3 3 -2 9 -12 12 -14 6 -15 5 -6 -5z"/>
<path d="M139 231 c9 -6 10 -10 2 -16 -9 -5 -9 -10 0 -21 8 -10 8 -14 0 -14
-6 0 -11 -13 -11 -30 l0 -30 60 0 60 0 0 60 0 60 -62 0 c-39 0 -58 -4 -49 -9z"/>
<path d="M295 193 c17 -9 41 -18 55 -19 22 -3 23 -2 7 7 -10 6 -21 8 -24 5 -3
-3 -15 1 -27 9 -11 8 -25 15 -31 15 -5 -1 4 -8 20 -17z"/>
<path d="M76 181 c-4 -5 3 -7 14 -4 23 6 26 13 6 13 -8 0 -17 -4 -20 -9z"/>
<path d="M49 143 c-13 -16 -12 -17 4 -4 16 13 21 21 13 21 -2 0 -10 -8 -17
-17z"/>
<path d="M63 118 c-11 -13 -23 -30 -27 -38 -4 -8 1 -5 11 7 22 27 49 16 40
-16 -3 -12 -2 -23 2 -25 4 -3 8 8 9 24 1 19 -4 32 -15 39 -16 9 -16 11 7 20
14 5 18 10 9 10 -8 1 -25 -9 -36 -21z"/>
<path d="M270 136 c0 -2 8 -10 18 -17 15 -13 16 -12 3 4 -13 16 -21 21 -21 13z"/>
<path d="M317 112 c-19 -21 -22 -38 -7 -47 6 -3 7 1 4 10 -4 9 2 25 11 35 10
11 16 20 13 20 -3 0 -12 -8 -21 -18z"/>
<path d="M122 88 c-15 -15 -16 -35 -2 -43 6 -3 7 1 4 10 -4 8 -1 22 6 30 15
18 9 20 -8 3z"/>
<path d="M230 70 c13 -8 13 -11 -1 -22 -8 -7 -21 -22 -29 -33 -8 -11 1 -6 19
12 31 30 34 53 8 53 -7 0 -6 -4 3 -10z"/>
<path d="M195 60 c-3 -5 -12 -7 -20 -3 -8 3 -15 3 -15 0 0 -13 30 -14 40 -1 7
8 10 14 7 14 -3 0 -8 -4 -12 -10z"/>
</g>
</svg>
