<svg xmlns="http://www.w3.org/2000/svg" width="38" height="38" viewBox="0 0 38 38" version="1.1"><path d="M 23.914 2.250 L 23.828 2.500 23.590 5.750 L 23.352 9.001 25.641 10.500 L 27.930 12 28.715 11.993 L 29.500 11.987 26.948 10.243 L 24.397 8.500 24.556 5.250 L 24.714 2 24.357 2 L 24 2 23.914 2.250 M 10.792 5.676 L 12.083 6.194 11.024 7.471 L 9.965 8.747 12.733 10.433 L 15.500 12.119 13.229 10.132 L 10.957 8.145 11.995 7.503 L 13.033 6.862 12.457 5.931 L 11.882 5 10.691 5.079 L 9.500 5.158 10.792 5.676 M 33.625 5.798 L 33.132 6.595 34.022 8.035 L 34.911 9.475 34.743 7.237 L 34.574 5 34.346 5 L 34.118 5 33.625 5.798 M 29.768 8.168 L 30.825 9.225 32.137 8.788 L 33.448 8.351 31.080 7.731 L 28.712 7.112 29.768 8.168 M 22 11 L 22 12.333 22.667 11.667 L 23.333 11 22.667 10.333 L 22 9.667 22 11 M 32.036 11.932 L 31.002 13.865 28.926 14.524 L 26.849 15.183 27.339 15.672 L 27.829 16.162 29.891 15.058 L 31.954 13.954 33.012 11.977 L 34.070 10 33.570 10 L 33.070 10 32.036 11.932 M 3.352 12.993 L 1.205 13.860 0.585 14.862 L -0.034 15.864 3.233 14.278 L 6.500 12.692 6.917 12.346 L 7.333 12 6.417 12.063 L 5.500 12.127 3.352 12.993 M 5.446 15.087 L 4.774 16.174 5.673 17.073 L 6.571 17.971 6.571 15.986 L 6.571 14 6.345 14 L 6.118 14 5.446 15.087 M 8.733 15.124 L 9.967 16.367 10.526 15.807 L 11.086 15.247 9.293 14.564 L 7.500 13.882 8.733 15.124 M 13.857 14.890 L 15.214 15.750 14.058 16.464 L 12.903 17.178 14.074 18.589 L 15.245 20 14.122 20 L 13 20 13 23 L 13 26 19 26 L 25 26 25 20 L 25 14 18.750 14.015 L 12.500 14.031 13.857 14.890 M 14 17.500 L 14 18 14.500 18 L 15 18 15 17.500 L 15 17 14.500 17 L 14 17 14 17.500 M 29.500 18.719 L 32.500 20.358 35 20.625 L 37.500 20.892 35.675 19.854 L 33.850 18.817 33.294 19.373 L 32.737 19.929 30.646 18.465 L 28.555 17 27.527 17.040 L 26.500 17.080 29.500 18.719 M 7.558 19.907 L 6.997 20.813 8.999 20.290 L 11 19.767 11 19.383 L 11 19 9.559 19 L 8.118 19 7.558 19.907 M 4.405 21.155 L 3.691 22.309 4.845 21.595 L 6 20.882 6 20.441 L 6 20 5.559 20 L 5.118 20 4.405 21.155 M 4.872 23.750 L 3.500 25.500 5.250 24.128 L 7 22.755 7 22.378 L 7 22 6.622 22 L 6.245 22 4.872 23.750 M 27 24.378 L 27 24.755 28.750 26.128 L 30.500 27.500 29.128 25.750 L 27.755 24 27.378 24 L 27 24 27 24.378 M 31.655 26.829 L 30 28.657 30 29.770 L 30 30.882 30.989 31.493 L 31.977 32.104 31.367 30.515 L 30.757 28.926 32.534 26.963 L 34.310 25 33.810 25 L 33.310 25 31.655 26.829 M 12.200 29.200 L 11 30.400 11 31.641 L 11 32.882 11.989 33.493 L 12.977 34.104 12.377 32.539 L 11.776 30.975 13.011 29.487 L 14.245 28 13.822 28 L 13.400 28 12.200 29.200 M 20 29 L 20 30.333 20.667 29.667 L 21.333 29 20.667 28.333 L 20 27.667 20 29 M 22.995 30.976 L 24.490 31.921 22.946 33.211 L 21.402 34.500 19.997 36.500 L 18.591 38.500 21.878 35.287 L 25.164 32.075 24.523 31.037 L 23.882 30 22.691 30.015 L 21.500 30.031 22.995 30.976 M 19.527 31.956 L 18.936 32.913 17.468 32.349 L 16 31.786 16 32.286 L 16 32.786 17.427 33.334 L 18.854 33.881 20.049 32.441 L 21.245 31 20.681 31 L 20.118 31 19.527 31.956" stroke="none" fill="#093c48" fill-rule="evenodd"/><path d="M 15 1.500 L 13.755 3 15 4.500 L 16.245 6 17.622 6 L 19 6 19 6.800 L 19 7.600 17.970 8.630 L 16.939 9.661 17.993 12.080 L 19.046 14.500 18.519 11.811 L 17.993 9.123 18.996 8.502 L 20 7.882 20 6.916 L 20 5.950 17.500 5 L 15 4.050 15 3.074 L 15 2.099 16.750 1.080 L 18.500 0.061 17.372 0.030 L 16.245 0 15 1.500 M 24 1.500 L 24 2 24.500 2 L 25 2 25 1.500 L 25 1 24.500 1 L 24 1 24 1.500 M 34 4.500 L 34 5 34.500 5 L 35 5 35 4.500 L 35 4 34.500 4 L 34 4 34 4.500 M 9 5.500 L 9 6 9.500 6 L 10 6 10 5.500 L 10 5 9.500 5 L 9 5 9 5.500 M 29 6.500 L 29 7 29.500 7 L 30 7 30 6.500 L 30 6 29.500 6 L 29 6 29 6.500 M 23 9.500 L 23 10 23.500 10 L 24 10 24 9.500 L 24 9 23.500 9 L 23 9 23 9.500 M 33 9.500 L 33 10 33.500 10 L 34 10 34 9.500 L 34 9 33.500 9 L 33 9 33 9.500 M 29 11.500 L 29 12 29.500 12 L 30 12 30 11.500 L 30 11 29.500 11 L 29 11 29 11.500 M 14 13 L 14 14.333 14.667 13.667 L 15.333 13 14.667 12.333 L 14 11.667 14 13 M 16 13 L 16 14.333 16.667 13.667 L 17.333 13 16.667 12.333 L 16 11.667 16 13 M 20 13 L 20 14.333 20.667 13.667 L 21.333 13 20.667 12.333 L 20 11.667 20 13 M 22 13 L 22 14.333 22.667 13.667 L 23.333 13 22.667 12.333 L 22 11.667 22 13 M 7 13.500 L 7 14 7.500 14 L 8 14 8 13.500 L 8 13 7.500 13 L 7 13 7 13.500 M 12.559 16.502 L 14.500 18.005 12.867 17.440 L 11.234 16.876 11.501 20.007 L 11.767 23.138 9.515 23.994 L 7.263 24.851 5.131 27.560 L 3 30.270 3.040 31.385 L 3.080 32.500 4.553 29.786 L 6.026 27.073 7.602 27.678 L 9.179 28.283 8.741 30.577 L 8.302 32.871 8.987 33.980 L 9.673 35.088 9.805 31.576 L 9.937 28.064 8.218 27.083 L 6.500 26.103 9.750 24.954 L 13 23.804 13 21.902 L 13 20 13.800 20 L 14.600 20 14.600 17.500 L 14.600 15 12.609 15 L 10.618 15 12.559 16.502 M 25.333 15.667 L 26 16.333 26.667 15.667 L 27.333 15 26 15 L 24.667 15 25.333 15.667 M 0 16.500 L 0 17 0.500 17 L 1 17 1 16.500 L 1 16 0.500 16 L 0 16 0 16.500 M 25.333 17.667 L 26 18.333 26.667 17.667 L 27.333 17 26 17 L 24.667 17 25.333 17.667 M 6 18.500 L 6 19 6.500 19 L 7 19 7 18.500 L 7 18 6.500 18 L 6 18 6 18.500 M 25.333 19.667 L 26 20.333 26.667 19.667 L 27.333 19 26 19 L 24.667 19 25.333 19.667 M 37 20.500 L 37 21 37.500 21 L 38 21 38 20.500 L 38 20 37.500 20 L 37 20 37 20.500 M 3 21.500 L 3 22 3.500 22 L 4 22 4 21.500 L 4 21 3.500 21 L 3 21 3 21.500 M 6 21.500 L 6 22 6.500 22 L 7 22 7 21.500 L 7 21 6.500 21 L 6 21 6 21.500 M 25.333 21.667 L 26 22.333 26.667 21.667 L 27.333 21 26 21 L 24.667 21 25.333 21.667 M 25.333 23.667 L 26 24.333 26.667 23.667 L 27.333 23 26 23 L 24.667 23 25.333 23.667 M 3 24.500 L 3 25 3.500 25 L 4 25 4 24.500 L 4 24 3.500 24 L 3 24 3 24.500 M 33 24.500 L 33 25 33.500 25 L 34 25 34 24.500 L 34 24 33.500 24 L 33 24 33 24.500 M 14 27 L 14 28.333 14.667 27.667 L 15.333 27 14.667 26.333 L 14 25.667 14 27 M 16 27 L 16 28.333 16.667 27.667 L 17.333 27 16.667 26.333 L 16 25.667 16 27 M 18 27 L 18 28.333 18.667 27.667 L 19.333 27 18.667 26.333 L 18 25.667 18 27 M 20 27 L 20 28.333 20.667 27.667 L 21.333 27 20.667 26.333 L 20 25.667 20 27 M 22 27 L 22 28.333 22.667 27.667 L 23.333 27 22.667 26.333 L 22 25.667 22 27 M 30 27.500 L 30 28 30.500 28 L 31 28 31 27.500 L 31 27 30.500 27 L 30 27 30 27.500 M 21 30.500 L 21 31 21.500 31 L 22 31 22 30.500 L 22 30 21.500 30 L 21 30 21 30.500 M 15 32.500 L 15 33 15.500 33 L 16 33 16 32.500 L 16 32 15.500 32 L 15 32 15 32.500 M 32 32.500 L 32 33 32.500 33 L 33 33 33 32.500 L 33 32 32.500 32 L 32 32 32 32.500 M 13 34.500 L 13 35 13.500 35 L 14 35 14 34.500 L 14 34 13.500 34 L 13 34 13 34.500 M 18 37.500 L 18 38 18.500 38 L 19 38 19 37.500 L 19 37 18.500 37 L 18 37 18 37.500" stroke="none" fill="#bd7e48" fill-rule="evenodd"/></svg>